<svg width="20" height="17" viewBox="0 0 20 17" fill="none" xmlns="http://www.w3.org/2000/svg">
<path d="M9.99999 17C9.86839 17.0007 9.73793 16.9755 9.61609 16.9258C9.49425 16.876 9.38343 16.8027 9.28999 16.71L1.51999 8.92999C0.545356 7.94516 -0.00134277 6.61555 -0.00134277 5.22999C-0.00134277 3.84442 0.545356 2.51481 1.51999 1.52999C2.50226 0.550497 3.83283 0.000457764 5.21999 0.000457764C6.60716 0.000457764 7.93773 0.550497 8.91999 1.52999L9.99999 2.60999L11.08 1.52999C12.0623 0.550497 13.3928 0.000457764 14.78 0.000457764C16.1672 0.000457764 17.4977 0.550497 18.48 1.52999C19.4546 2.51481 20.0013 3.84442 20.0013 5.22999C20.0013 6.61555 19.4546 7.94516 18.48 8.92999L10.71 16.71C10.6166 16.8027 10.5057 16.876 10.3839 16.9258C10.2621 16.9755 10.1316 17.0007 9.99999 17Z" fill="#F5F5F5"/>
</svg>
